<svg xmlns="http://www.w3.org/2000/svg" xmlns:xlink="http://www.w3.org/1999/xlink" width="149.866" height="41.895" viewBox="0 0 149.866 41.895">
  <defs>
    <filter id="Ellipse_797" x="0" y="0" width="42.62" height="41.895" filterUnits="userSpaceOnUse">
      <feOffset input="SourceAlpha"/>
      <feGaussianBlur stdDeviation="3" result="blur"/>
      <feFlood flood-opacity="0.161"/>
      <feComposite operator="in" in2="blur"/>
      <feComposite in="SourceGraphic"/>
    </filter>
  </defs>
  <g id="Group_3967" data-name="Group 3967" transform="translate(-22 -18.553)">
    <g id="Group_3964" data-name="Group 3964" transform="translate(31 27.172)">
      <g transform="matrix(1, 0, 0, 1, -9, -8.62)" filter="url(#Ellipse_797)">
        <ellipse id="Ellipse_797-2" data-name="Ellipse 797" cx="12.31" cy="11.947" rx="12.31" ry="11.947" transform="translate(9 9)" fill="#fff"/>
      </g>
      <path id="Path_2427" data-name="Path 2427" d="M25.456,28.36l6.627,6.164L38.71,28.36v3.313h5.358a12.316,12.316,0,0,0-23.969,0h5.357Z" transform="translate(-19.777 -22.195)" fill="#0068ab"/>
      <path id="Path_2428" data-name="Path 2428" d="M32.083,83.2a12.325,12.325,0,0,0,11.984-9.478H38.709v3.313l-6.627-6.165-6.627,6.165V73.717H20.1A12.325,12.325,0,0,0,32.083,83.2" transform="translate(-19.776 -58.537)" fill="#0068ab"/>
    </g>
    <path id="Path_2449" data-name="Path 2449" d="M148.122,40.8a3.377,3.377,0,0,0-1.524-.354,1.366,1.366,0,0,0-1.083.376,2.452,2.452,0,0,0-.418,1.722v1.018h2.938v2.254H145.1v9.122h-2.673V45.819h-1.26V43.565h1.26V42.349a4.9,4.9,0,0,1,.772-3,3.632,3.632,0,0,1,3.139-1.238,6.082,6.082,0,0,1,2.585.6Z" transform="translate(-79.172 -6.906)" fill="#fff"/>
    <path id="Path_2450" data-name="Path 2450" d="M148.122,40.8a3.377,3.377,0,0,0-1.524-.354,1.366,1.366,0,0,0-1.083.376,2.452,2.452,0,0,0-.418,1.722v1.018h2.938v2.254H145.1v9.122h-2.673V45.819h-1.26V43.565h1.26V42.349a4.9,4.9,0,0,1,.772-3,3.632,3.632,0,0,1,3.139-1.238,6.082,6.082,0,0,1,2.585.6Z" transform="translate(-79.172 -6.906)" fill="#fff"/>
    <path id="Path_2451" data-name="Path 2451" d="M180.658,60.48A3.345,3.345,0,0,1,183.42,58.6a4.348,4.348,0,0,1,1.369.2l-.6,2.5a2.18,2.18,0,0,0-1.083-.243,2.685,2.685,0,0,0-2.341,1.524v7.666h-2.695V58.867h2.451Z" transform="translate(-106.732 -22.209)" fill="#fff"/>
    <path id="Path_2452" data-name="Path 2452" d="M180.658,60.48A3.345,3.345,0,0,1,183.42,58.6a4.348,4.348,0,0,1,1.369.2l-.6,2.5a2.18,2.18,0,0,0-1.083-.243,2.685,2.685,0,0,0-2.341,1.524v7.666h-2.695V58.867h2.451Z" transform="translate(-106.732 -22.209)" fill="#fff"/>
    <path id="Path_2453" data-name="Path 2453" d="M212.533,65.231a3.2,3.2,0,0,0,3.181,3.093,3.316,3.316,0,0,0,3.139-1.768l1.81,1.214a5.588,5.588,0,0,1-5.1,2.74,5.514,5.514,0,0,1-5.723-5.875,5.784,5.784,0,0,1,5.723-6.032,5.166,5.166,0,0,1,5.367,5.279,9.382,9.382,0,0,1-.11,1.349Zm3.093-4.485a2.973,2.973,0,0,0-2.938,2.562h5.5a2.563,2.563,0,0,0-2.563-2.562" transform="translate(-130.451 -22.209)" fill="#fff"/>
    <path id="Path_2454" data-name="Path 2454" d="M212.533,65.231a3.2,3.2,0,0,0,3.181,3.093,3.316,3.316,0,0,0,3.139-1.768l1.81,1.214a5.588,5.588,0,0,1-5.1,2.74,5.514,5.514,0,0,1-5.723-5.875,5.784,5.784,0,0,1,5.723-6.032,5.166,5.166,0,0,1,5.367,5.279,9.382,9.382,0,0,1-.11,1.349Zm3.093-4.485a2.973,2.973,0,0,0-2.938,2.562h5.5a2.563,2.563,0,0,0-2.563-2.562" transform="translate(-130.451 -22.209)" fill="#fff"/>
    <path id="Path_2455" data-name="Path 2455" d="M265.85,65.231a3.2,3.2,0,0,0,3.181,3.093,3.316,3.316,0,0,0,3.139-1.768l1.81,1.214a5.589,5.589,0,0,1-5.1,2.74,5.513,5.513,0,0,1-5.72-5.875,5.783,5.783,0,0,1,5.72-6.032,5.167,5.167,0,0,1,5.37,5.279,9.38,9.38,0,0,1-.11,1.349Zm3.093-4.485a2.973,2.973,0,0,0-2.938,2.562h5.5a2.563,2.563,0,0,0-2.563-2.562" transform="translate(-170.262 -22.209)" fill="#fff"/>
    <path id="Path_2456" data-name="Path 2456" d="M265.85,65.231a3.2,3.2,0,0,0,3.181,3.093,3.316,3.316,0,0,0,3.139-1.768l1.81,1.214a5.589,5.589,0,0,1-5.1,2.74,5.513,5.513,0,0,1-5.72-5.875,5.783,5.783,0,0,1,5.72-6.032,5.167,5.167,0,0,1,5.37,5.279,9.38,9.38,0,0,1-.11,1.349Zm3.093-4.485a2.973,2.973,0,0,0-2.938,2.562h5.5a2.563,2.563,0,0,0-2.563-2.562" transform="translate(-170.262 -22.209)" fill="#fff"/>
    <path id="Path_2457" data-name="Path 2457" d="M318.574,54.219v4.705c0,.331,0,.6.02.951.09.882.4,1.391,1.238,1.391a2.573,2.573,0,0,0,1.258-.311l.795,2.033a5.371,5.371,0,0,1-2.474.6,3.174,3.174,0,0,1-3.246-2.164,6.289,6.289,0,0,1-.288-2.1v-5.1h-1.414V51.965h1.414l.288-2.607h2.409v2.607h3v2.254Z" transform="translate(-208.574 -15.307)" fill="#fff"/>
    <path id="Path_2458" data-name="Path 2458" d="M318.574,54.219v4.705c0,.331,0,.6.02.951.09.882.4,1.391,1.238,1.391a2.573,2.573,0,0,0,1.258-.311l.795,2.033a5.371,5.371,0,0,1-2.474.6,3.174,3.174,0,0,1-3.246-2.164,6.289,6.289,0,0,1-.288-2.1v-5.1h-1.414V51.965h1.414l.288-2.607h2.409v2.607h3v2.254Z" transform="translate(-208.574 -15.307)" fill="#fff"/>
    <path id="Path_2459" data-name="Path 2459" d="M357.007,60.48a3.345,3.345,0,0,1,2.762-1.878,4.348,4.348,0,0,1,1.369.2l-.6,2.5a2.179,2.179,0,0,0-1.082-.243,2.686,2.686,0,0,0-2.342,1.524v7.666h-2.695V58.867h2.451Z" transform="translate(-238.41 -22.209)" fill="#fff"/>
    <path id="Path_2460" data-name="Path 2460" d="M357.007,60.48a3.345,3.345,0,0,1,2.762-1.878,4.348,4.348,0,0,1,1.369.2l-.6,2.5a2.179,2.179,0,0,0-1.082-.243,2.686,2.686,0,0,0-2.342,1.524v7.666h-2.695V58.867h2.451Z" transform="translate(-238.41 -22.209)" fill="#fff"/>
    <path id="Path_2461" data-name="Path 2461" d="M394.591,70.244l-.133-1.06a3.94,3.94,0,0,1-3.226,1.326c-2.121,0-4.087-1.17-4.087-3.557,0-2.827,2.607-3.71,5.014-3.71a10.316,10.316,0,0,1,2.144.243v-.265a2.157,2.157,0,0,0-2.429-2.474,7.859,7.859,0,0,0-3.512.993l-.729-2.01A11.2,11.2,0,0,1,392.36,58.6c3.223,0,4.617,1.812,4.617,4.773v6.869Zm-.288-5.036a7.783,7.783,0,0,0-1.745-.221c-1.259,0-2.783.4-2.783,1.878,0,1.149.905,1.657,1.943,1.657a3.928,3.928,0,0,0,2.585-1.128Z" transform="translate(-262.844 -22.209)" fill="#fff"/>
    <path id="Path_2462" data-name="Path 2462" d="M394.591,70.244l-.133-1.06a3.94,3.94,0,0,1-3.226,1.326c-2.121,0-4.087-1.17-4.087-3.557,0-2.827,2.607-3.71,5.014-3.71a10.316,10.316,0,0,1,2.144.243v-.265a2.157,2.157,0,0,0-2.429-2.474,7.859,7.859,0,0,0-3.512.993l-.729-2.01A11.2,11.2,0,0,1,392.36,58.6c3.223,0,4.617,1.812,4.617,4.773v6.869Zm-.288-5.036a7.783,7.783,0,0,0-1.745-.221c-1.259,0-2.783.4-2.783,1.878,0,1.149.905,1.657,1.943,1.657a3.928,3.928,0,0,0,2.585-1.128Z" transform="translate(-262.844 -22.209)" fill="#fff"/>
    <path id="Path_2463" data-name="Path 2463" d="M441.681,42.47h2.673v2.5h-2.673Zm0,4.352h2.673V58.2h-2.673Z" transform="translate(-303.564 -10.164)" fill="#fff"/>
    <path id="Path_2464" data-name="Path 2464" d="M441.681,42.47h2.673v2.5h-2.673Zm0,4.352h2.673V58.2h-2.673Z" transform="translate(-303.564 -10.164)" fill="#fff"/>
    <rect id="Rectangle_3062" data-name="Rectangle 3062" width="2.673" height="16.568" transform="translate(144.879 31.467)" fill="#fff"/>
    <rect id="Rectangle_3063" data-name="Rectangle 3063" width="2.673" height="16.568" transform="translate(144.879 31.467)" fill="#fff"/>
    <path id="Path_2465" data-name="Path 2465" d="M494.467,65.231a3.2,3.2,0,0,0,3.18,3.093,3.316,3.316,0,0,0,3.138-1.768l1.81,1.214a5.588,5.588,0,0,1-5.1,2.74,5.513,5.513,0,0,1-5.722-5.875,5.784,5.784,0,0,1,5.722-6.032,5.166,5.166,0,0,1,5.367,5.279,9.419,9.419,0,0,1-.11,1.349Zm3.092-4.485a2.973,2.973,0,0,0-2.937,2.562h5.5a2.563,2.563,0,0,0-2.562-2.562" transform="translate(-340.969 -22.209)" fill="#fff"/>
    <path id="Path_2466" data-name="Path 2466" d="M494.467,65.231a3.2,3.2,0,0,0,3.18,3.093,3.316,3.316,0,0,0,3.138-1.768l1.81,1.214a5.588,5.588,0,0,1-5.1,2.74,5.513,5.513,0,0,1-5.722-5.875,5.784,5.784,0,0,1,5.722-6.032,5.166,5.166,0,0,1,5.367,5.279,9.419,9.419,0,0,1-.11,1.349Zm3.092-4.485a2.973,2.973,0,0,0-2.937,2.562h5.5a2.563,2.563,0,0,0-2.562-2.562" transform="translate(-340.969 -22.209)" fill="#fff"/>
    <path id="Path_2467" data-name="Path 2467" d="M550.985,60.48a3.345,3.345,0,0,1,2.762-1.878,4.346,4.346,0,0,1,1.369.2l-.6,2.5a2.179,2.179,0,0,0-1.083-.243,2.685,2.685,0,0,0-2.341,1.524v7.666H548.4V58.867h2.451Z" transform="translate(-383.25 -22.209)" fill="#fff"/>
    <path id="Path_2468" data-name="Path 2468" d="M550.985,60.48a3.345,3.345,0,0,1,2.762-1.878,4.346,4.346,0,0,1,1.369.2l-.6,2.5a2.179,2.179,0,0,0-1.083-.243,2.685,2.685,0,0,0-2.341,1.524v7.666H548.4V58.867h2.451Z" transform="translate(-383.25 -22.209)" fill="#fff"/>
  </g>
</svg>
